IKResults
version=1
nRows=16
nColumns=24
inDegrees=yes

Units are S.I. units (second, meters, Newtons, ...)
If the header above contains a line with 'inDegrees', this indicates whether rotational values are in degrees (yes) or radians (no).

endheader
time	pelvis_tilt	pelvis_list	pelvis_rotation	pelvis_tx	pelvis_ty	pelvis_tz	hip_flexion_r	hip_adduction_r	hip_rotation_r	knee_angle_r	ankle_angle_r	subtalar_angle_r	mtp_angle_r	hip_flexion_l	hip_adduction_l	hip_rotation_l	knee_angle_l	ankle_angle_l	subtalar_angle_l	mtp_angle_l	lumbar_extension	lumbar_bending	lumbar_rotation
2.025000	11.658586	1.849804	-179.469256	0.315673	0.632346	-1.208083	64.658253	-27.196881	-16.565857	-88.068243	29.015305	4.526187	0.000000	67.188405	-31.328702	-13.058210	-88.030242	29.728728	16.829294	0.000000	-12.825234	2.636381	3.112130
2.030000	11.681031	1.842785	-179.509836	0.315020	0.637148	-1.208120	63.996744	-26.991305	-16.856563	-87.070849	28.644183	4.534671	0.000000	66.451098	-31.225757	-13.473730	-87.054892	29.357606	16.817888	0.000000	-12.678147	2.619125	3.163708
2.035000	11.692870	1.827272	-179.489404	0.314335	0.641889	-1.208159	63.310654	-26.836749	-17.153376	-86.081186	28.295390	4.550435	0.000000	65.715167	-31.065660	-13.867728	-86.061944	28.991010	16.811987	0.000000	-12.526847	2.595831	3.124587
2.040000	11.736916	1.793846	-179.476382	0.313706	0.646548	-1.208204	62.677456	-26.690442	-17.434003	-85.084981	27.898308	4.573788	0.000000	65.015437	-30.891573	-14.266064	-85.061408	28.574445	16.800505	0.000000	-12.341315	2.553697	3.112586
2.045000	11.701935	1.785079	-179.463536	0.312936	0.651210	-1.208267	61.945754	-26.528104	-17.735863	-84.102648	27.529476	4.581420	0.000000	64.158529	-30.746116	-14.848208	-84.004046	28.343246	16.568078	0.000000	-12.236040	2.532550	3.067192
2.050000	11.722520	1.767688	-179.474710	0.312190	0.655799	-1.208277	61.292590	-26.356563	-18.015540	-83.110806	27.145191	4.608295	0.000000	63.442710	-30.605402	-15.240291	-83.021601	27.929158	16.538011	0.000000	-12.073938	2.507108	3.073090
2.055000	11.730075	1.752911	-179.486991	0.311456	0.660366	-1.208343	60.642431	-26.173055	-18.292425	-82.135770	26.759118	4.569326	0.000000	62.723035	-30.461619	-15.609385	-82.035418	27.517193	16.515818	0.000000	-11.919051	2.475230	3.057733
2.060000	11.721615	1.738690	-179.485246	0.310646	0.664898	-1.208338	59.966895	-26.004791	-18.560927	-81.158288	26.382286	4.562002	0.000000	61.987648	-30.301817	-15.981897	-81.064532	27.130227	16.476849	0.000000	-11.774729	2.446559	3.058174
2.065000	11.723164	1.725357	-179.481824	0.309847	0.669417	-1.208360	59.291924	-25.828100	-18.831673	-80.157515	25.993983	4.570011	0.000000	61.271474	-30.140023	-16.318056	-80.098487	26.741128	16.541155	0.000000	-11.616058	2.421141	3.061057
2.070000	11.699093	1.706704	-179.461706	0.309011	0.673920	-1.208459	58.583325	-25.649238	-19.091872	-79.151359	25.625701	4.569893	0.000000	60.525589	-29.966274	-16.674617	-79.109402	26.348887	16.557023	0.000000	-11.491570	2.387559	2.985161
2.075000	11.673380	1.689864	-179.445365	0.308184	0.678376	-1.208522	57.885424	-25.477492	-19.354077	-78.160399	25.243196	4.605314	0.000000	59.776669	-29.775682	-17.047121	-78.091456	25.948172	16.443539	0.000000	-11.360216	2.354449	2.955807
2.080000	11.669407	1.673844	-179.450210	0.307309	0.682809	-1.208555	57.219289	-25.281557	-19.600141	-77.162257	24.861186	4.602786	0.000000	59.046532	-29.594095	-17.395843	-77.096169	25.537745	16.331115	0.000000	-11.201747	2.308659	2.971156
2.085000	11.639510	1.666988	-179.464719	0.306432	0.687165	-1.208578	56.540286	-25.084976	-19.859023	-76.183274	24.466048	4.568490	0.000000	58.292616	-29.423550	-17.733454	-76.077569	25.214470	16.296024	0.000000	-11.060932	2.299460	2.931811
2.090000	11.620984	1.658675	-179.487676	0.305494	0.691494	-1.208591	55.865935	-24.869300	-20.095257	-75.184320	24.074299	4.520177	0.000000	57.539362	-29.269053	-18.084072	-75.093217	24.918827	16.298607	0.000000	-10.910397	2.253450	2.977326
2.095000	11.584306	1.643775	-179.471610	0.304602	0.695764	-1.208633	55.163932	-24.679144	-20.340324	-74.178363	23.682509	4.502110	0.000000	56.798613	-29.044217	-18.381792	-74.070457	24.304064	16.061939	0.000000	-10.777619	2.265549	2.867877
2.100000	11.572099	1.618398	-179.479493	0.303688	0.700066	-1.208666	54.450252	-24.445919	-20.416014	-73.063556	23.523071	4.985983	0.000000	56.092964	-28.847078	-18.705728	-73.142974	23.787438	15.969058	0.000000	-10.617107	2.193449	2.894996
